<svg width="318" height="1830" viewBox="0 0 318 1830" fill="none" xmlns="http://www.w3.org/2000/svg">
<path d="M99.3125 1826.13L99.3125 1817.75L243.58 1760.71L99.3125 1703.67L99.3125 1695.4L254 1756.52L254 1764.9L99.3125 1826.13ZM99.3125 1809.48L99.3125 1801.21L215.328 1755.34L225.211 1759.75L99.3125 1809.48ZM99.3125 1792.83L99.3125 1784.45L194.166 1747.07L204.801 1751.15L99.3125 1792.83ZM99.3125 1776.18L99.3125 1767.91L172.682 1738.91L183.531 1742.99L99.3125 1776.18ZM99.3125 1653.83L99.3125 1645.45L254 1706.68L254 1714.95L99.3125 1653.83ZM99.3125 1670.37L99.3125 1662.1L254 1723.33L254 1731.6L99.3125 1670.37ZM99.3125 1687.13L99.3125 1678.75L254 1739.98L254 1748.25L99.3125 1687.13ZM254 1593.13L254 1600.87L99.3125 1600.87L99.3125 1593.13L254 1593.13ZM254 1608.6L254 1616.34L99.3125 1616.34L99.3125 1608.6L254 1608.6ZM254 1624.07L254 1631.81L99.3125 1631.81L99.3125 1624.07L254 1624.07ZM215.328 1577.67L215.328 1503.65L223.063 1503.65L223.063 1577.67L230.797 1577.67L230.797 1503.65L238.531 1503.65L238.531 1577.67L246.266 1577.67L246.266 1503.65L254 1503.65L254 1585.4L99.3125 1585.4L99.3125 1503.65L107.047 1503.65L107.047 1577.67L114.781 1577.67L114.781 1503.65L122.516 1503.65L122.516 1577.67L130.25 1577.67L130.25 1503.65L137.984 1503.65L137.984 1577.67L157.213 1577.67L157.213 1507.95L164.947 1507.95L164.947 1577.67L172.682 1577.67L172.682 1507.95L180.416 1507.95L180.416 1577.67L188.15 1577.67L188.15 1507.95L195.885 1507.95L195.885 1577.67L215.328 1577.67ZM191.588 1363.04L177.516 1370.77L99.3125 1370.77L99.3125 1363.04L191.588 1363.04ZM218.336 1347.57L205.23 1355.3L99.3125 1355.3L99.3125 1347.57L218.336 1347.57ZM161.725 1454.13L175.797 1446.4L254 1446.4L254 1454.13L161.725 1454.13ZM133.902 1469.6L148.082 1461.87L254 1461.87L254 1469.6L133.902 1469.6ZM99.3125 1466.91L99.3125 1457.89L254 1368.3L254 1377.32L99.3125 1466.91ZM99.3125 1448.65L99.3125 1439.52L254 1350.04L254 1359.28L99.3125 1448.65ZM99.3125 1430.5L99.3125 1421.47L240.572 1339.83L99.3125 1339.83L99.3125 1332.1L254 1332.1L254 1341.23L99.3125 1430.5ZM112.633 1477.33L254 1477.33L254 1485.07L99.3125 1485.07L99.3125 1475.83L254 1386.56L254 1395.48L112.633 1477.33ZM207.594 1265.5L145.719 1265.5C145.719 1265.5 145.719 1251.21 145.719 1222.64C145.719 1214.69 148.727 1207.88 154.742 1202.23C160.758 1196.5 167.991 1193.63 176.441 1193.63C185.178 1193.63 192.555 1196.46 198.57 1202.12C204.586 1207.78 207.594 1214.62 207.594 1222.64L207.594 1265.5ZM199.859 1257.76L199.859 1222.64C199.859 1216.84 197.604 1211.89 193.092 1207.81C188.58 1203.66 183.03 1201.58 176.441 1201.58C170.139 1201.58 164.732 1203.66 160.221 1207.81C155.709 1211.89 153.453 1216.84 153.453 1222.64L153.453 1257.76L199.859 1257.76ZM215.328 1273.23L215.328 1222.64C215.328 1212.47 211.568 1203.77 204.049 1196.53C196.458 1189.3 187.255 1185.68 176.441 1185.68C165.842 1185.68 156.783 1189.34 149.264 1196.64C141.744 1203.87 137.984 1212.54 137.984 1222.64L137.984 1273.23L215.328 1273.23ZM223.063 1280.97L130.25 1280.97L130.25 1222.64C130.25 1210.39 134.798 1199.86 143.893 1191.05C152.916 1182.17 163.766 1177.73 176.441 1177.73C189.404 1177.73 200.432 1182.14 209.527 1190.95C218.551 1199.76 223.063 1210.32 223.063 1222.64L223.063 1280.97ZM230.797 1288.7L230.797 1222.64C230.797 1213.18 228.398 1204.41 223.6 1196.32C218.801 1188.23 212.213 1181.78 203.834 1176.98C195.455 1172.18 186.324 1169.79 176.441 1169.79C166.773 1169.79 157.786 1172.18 149.479 1176.98C141.171 1181.78 134.618 1188.26 129.82 1196.43C124.951 1204.52 122.516 1213.26 122.516 1222.64L122.516 1288.7L230.797 1288.7ZM238.531 1296.44L114.781 1296.44L114.781 1222.64C114.781 1211.82 117.538 1201.76 123.053 1192.45C128.567 1183.07 136.087 1175.62 145.611 1170.11C155.064 1164.59 165.341 1161.84 176.441 1161.84C187.685 1161.84 198.105 1164.59 207.701 1170.11C217.226 1175.62 224.745 1183.07 230.26 1192.45C235.774 1201.76 238.531 1211.82 238.531 1222.64L238.531 1296.44ZM246.266 1304.17L246.266 1222.64C246.266 1210.39 243.186 1199 237.027 1188.48C230.797 1177.95 222.311 1169.57 211.568 1163.34C200.826 1157.04 189.117 1153.89 176.441 1153.89C163.98 1153.89 152.415 1157.04 141.744 1163.34C131.002 1169.57 122.551 1177.99 116.393 1188.58C110.162 1199.11 107.047 1210.46 107.047 1222.64L107.047 1304.17L246.266 1304.17ZM254 1222.64L254 1311.9L99.3125 1311.9L99.3125 1222.64C99.3125 1209.03 102.786 1196.35 109.732 1184.61C116.607 1172.79 125.989 1163.41 137.877 1156.46C149.693 1149.45 162.548 1145.94 176.441 1145.94C186.969 1145.94 197.031 1148.01 206.627 1152.17C216.223 1156.25 224.495 1161.76 231.441 1168.71C238.316 1175.59 243.795 1183.75 247.877 1193.2C251.959 1202.66 254 1212.47 254 1222.64ZM254 1089.97L254 1097.71L99.3125 1097.71L99.3125 1089.97L254 1089.97ZM254 1105.44L254 1113.17L99.3125 1113.17L99.3125 1105.44L254 1105.44ZM254 1120.91L254 1128.64L99.3125 1128.64L99.3125 1120.91L254 1120.91ZM215.328 1074.5L215.328 1000.49L223.063 1000.49L223.063 1074.5L230.797 1074.5L230.797 1000.49L238.531 1000.49L238.531 1074.5L246.266 1074.5L246.266 1000.49L254 1000.49L254 1082.24L99.3125 1082.24L99.3125 1000.49L107.047 1000.49L107.047 1074.5L114.781 1074.5L114.781 1000.49L122.516 1000.49L122.516 1074.5L130.25 1074.5L130.25 1000.49L137.984 1000.49L137.984 1074.5L157.213 1074.5L157.213 1004.79L164.947 1004.79L164.947 1074.5L172.682 1074.5L172.682 1004.79L180.416 1004.79L180.416 1074.5L188.15 1074.5L188.15 1004.79L195.885 1004.79L195.885 1074.5L215.328 1074.5ZM142.174 954.512L142.174 946.777L254 946.777L254 954.512L142.174 954.512ZM107.047 985.449L99.3125 985.449L99.3125 869.434L107.047 869.434L107.047 985.449ZM122.516 985.449L114.781 985.449L114.781 869.434L122.516 869.434L122.516 985.449ZM137.984 985.449L130.25 985.449L130.25 869.434L137.984 869.434L137.984 985.449ZM142.174 908.105L142.174 900.371L254 900.371L254 908.105L142.174 908.105ZM142.174 923.574L142.174 915.84L254 915.84L254 923.574L142.174 923.574ZM142.174 939.043L142.174 931.309L254 931.309L254 939.043L142.174 939.043ZM142.174 824.961L142.174 817.227L254 817.227L254 824.961L142.174 824.961ZM107.047 855.898L99.3125 855.898L99.3125 739.883L107.047 739.883L107.047 855.898ZM122.516 855.898L114.781 855.898L114.781 739.883L122.516 739.883L122.516 855.898ZM137.984 855.898L130.25 855.898L130.25 739.883L137.984 739.883L137.984 855.898ZM142.174 778.555L142.174 770.82L254 770.82L254 778.555L142.174 778.555ZM142.174 794.023L142.174 786.289L254 786.289L254 794.023L142.174 794.023ZM142.174 809.492L142.174 801.758L254 801.758L254 809.492L142.174 809.492ZM177.73 613.018C168.564 613.018 161.474 615.846 156.461 621.504C151.448 627.161 148.941 634.645 148.941 643.955C148.941 651.833 151.663 658.6 157.105 664.258C162.548 669.915 169.065 672.744 176.656 672.744C180.953 672.744 184.82 672.171 188.258 671.025C191.624 669.88 194.452 668.34 196.744 666.406C198.964 664.401 200.826 662.038 202.33 659.316C203.762 656.595 204.801 653.766 205.445 650.83C206.09 647.822 206.412 644.635 206.412 641.27C206.412 633.105 204.407 625.658 200.397 618.926L208.131 618.926C211.783 625.872 213.609 633.356 213.609 641.377C213.609 646.533 212.929 651.403 211.568 655.986C210.136 660.498 208.023 664.616 205.23 668.34C202.366 672.064 198.499 675.036 193.629 677.256C188.688 679.404 183.03 680.479 176.656 680.479C166.773 680.479 158.395 677.005 151.52 670.059C144.645 663.112 141.207 654.411 141.207 643.955C141.207 632.425 144.466 623.115 150.982 616.025C157.428 608.864 166.344 605.283 177.73 605.283L254 605.283L254 613.018L177.73 613.018ZM177.73 589.814L254 589.814L254 597.549L177.73 597.549C164.195 597.549 153.453 601.882 145.504 610.547C137.483 619.212 133.473 630.348 133.473 643.955C133.473 656.559 137.662 667.087 146.041 675.537C154.42 683.988 164.625 688.213 176.656 688.213C183.961 688.213 190.514 686.96 196.314 684.453C202.115 681.875 206.77 678.402 210.279 674.033C213.788 669.665 216.474 664.795 218.336 659.424C220.126 653.981 221.022 648.252 221.022 642.236C221.022 634.072 219.124 626.302 215.328 618.926L223.492 618.926C226.715 626.66 228.326 634.466 228.326 642.344C228.326 649.434 227.252 656.165 225.104 662.539C222.883 668.913 219.697 674.606 215.543 679.619C211.318 684.632 205.875 688.607 199.215 691.543C192.483 694.479 184.964 695.947 176.656 695.947C162.548 695.947 150.553 690.97 140.67 681.016C130.716 670.99 125.738 658.636 125.738 643.955C125.738 633.643 127.851 624.404 132.076 616.24C136.23 608.076 142.281 601.631 150.23 596.904C158.18 592.178 167.346 589.814 177.73 589.814ZM177.73 574.346L254 574.346L254 582.08L177.73 582.08C165.914 582.08 155.458 584.801 146.363 590.244C137.197 595.615 130.178 602.992 125.309 612.373C120.439 621.755 118.004 632.282 118.004 643.955C118.004 655.055 120.654 665.189 125.953 674.355C131.181 683.522 138.271 690.719 147.223 695.947C156.174 701.104 165.986 703.682 176.656 703.682C185.823 703.682 194.202 701.999 201.793 698.633C209.313 695.267 215.507 690.755 220.377 685.098C225.247 679.368 229.042 672.887 231.764 665.654C234.413 658.35 235.738 650.723 235.738 642.773C235.738 634.681 234.055 626.732 230.689 618.926L238.531 618.926C241.611 627.09 243.15 635.111 243.15 642.988C243.15 655.378 240.357 666.764 234.772 677.148C229.186 687.533 221.272 695.84 211.031 702.07C200.79 708.301 189.332 711.416 176.656 711.416C167.633 711.416 159.039 709.697 150.875 706.26C142.711 702.751 135.657 698.024 129.713 692.08C123.769 686.136 119.042 678.975 115.533 670.596C112.024 662.217 110.27 653.337 110.27 643.955C110.27 630.85 113.063 619.033 118.648 608.506C124.234 597.907 132.184 589.564 142.496 583.477C152.809 577.389 164.553 574.346 177.73 574.346ZM177.73 558.877L254 558.877L254 566.611L177.73 566.611C163.121 566.611 150.087 570.013 138.629 576.816C127.099 583.62 118.219 592.894 111.988 604.639C105.686 616.383 102.535 629.489 102.535 643.955C102.535 657.848 105.865 670.56 112.525 682.09C119.186 693.62 128.209 702.679 139.596 709.268C150.911 715.856 163.264 719.15 176.656 719.15C185.465 719.15 193.844 717.754 201.793 714.961C209.671 712.096 216.581 708.229 222.525 703.359C228.398 698.418 233.482 692.76 237.779 686.387C242.076 679.941 245.335 673.031 247.555 665.654C249.775 658.206 250.885 650.651 250.885 642.988C250.885 634.538 249.273 626.517 246.051 618.926L254 618.926C256.793 626.875 258.189 635.039 258.189 643.418C258.189 652.083 256.972 660.534 254.537 668.77C252.102 676.934 248.522 684.525 243.795 691.543C238.997 698.49 233.375 704.613 226.93 709.912C220.413 715.212 212.822 719.365 204.156 722.373C195.491 725.381 186.324 726.885 176.656 726.885C165.556 726.885 154.993 724.808 144.967 720.654C134.869 716.429 126.168 710.7 118.863 703.467C111.487 696.162 105.65 687.354 101.354 677.041C96.985 666.657 94.8008 655.628 94.8008 643.955C94.8008 632.067 96.806 620.895 100.816 610.439C104.827 599.984 110.413 590.96 117.574 583.369C124.664 575.778 133.401 569.798 143.785 565.43C154.169 561.061 165.484 558.877 177.73 558.877ZM152.594 428.467L157.32 434.697C149.586 440.928 145.719 448.949 145.719 458.76C145.719 467.282 148.762 474.587 154.85 480.674C160.865 486.689 168.134 489.697 176.656 489.697C185.178 489.697 192.483 486.689 198.57 480.674C204.586 474.587 207.594 467.282 207.594 458.76C207.594 453.962 206.555 449.486 204.479 445.332C202.402 441.107 199.537 437.526 195.885 434.59L200.934 428.574C205.445 432.155 208.99 436.595 211.568 441.895C214.075 447.194 215.328 452.816 215.328 458.76C215.328 469.43 211.568 478.561 204.049 486.152C196.458 493.672 187.327 497.432 176.656 497.432C165.986 497.432 156.891 493.672 149.371 486.152C141.78 478.561 137.984 469.43 137.984 458.76C137.984 452.744 139.309 447.087 141.959 441.787C144.537 436.488 148.082 432.048 152.594 428.467ZM142.926 416.436L147.652 422.559C142.21 426.855 137.949 432.191 134.869 438.564C131.79 444.867 130.25 451.598 130.25 458.76C130.25 471.579 134.798 482.536 143.893 491.631C152.988 500.654 163.909 505.166 176.656 505.166C189.404 505.166 200.325 500.654 209.42 491.631C218.515 482.536 223.063 471.579 223.063 458.76C223.063 451.598 221.523 444.831 218.443 438.457C215.292 432.083 210.995 426.748 205.553 422.451L210.494 416.543C216.796 421.556 221.773 427.751 225.426 435.127C229.007 442.503 230.797 450.381 230.797 458.76C230.797 468.571 228.398 477.63 223.6 485.938C218.73 494.245 212.141 500.833 203.834 505.703C195.527 510.501 186.467 512.9 176.656 512.9C166.845 512.9 157.786 510.501 149.479 505.703C141.171 500.833 134.619 494.245 129.82 485.938C124.951 477.63 122.516 468.571 122.516 458.76C122.516 450.381 124.342 442.503 127.994 435.127C131.575 427.679 136.552 421.449 142.926 416.436ZM133.258 404.297L138.092 410.313C130.859 416.113 125.165 423.239 121.012 431.689C116.858 440.14 114.781 449.163 114.781 458.76C114.781 467.139 116.428 475.16 119.723 482.822C122.945 490.413 127.35 497.002 132.936 502.588C138.45 508.102 145.038 512.507 152.701 515.801C160.292 519.023 168.277 520.635 176.656 520.635C185.035 520.635 193.056 519.023 200.719 515.801C208.31 512.507 214.898 508.102 220.484 502.588C225.999 497.002 230.403 490.413 233.697 482.822C236.92 475.16 238.531 467.139 238.531 458.76C238.531 449.163 236.454 440.14 232.301 431.689C228.147 423.239 222.454 416.113 215.221 410.313L220.27 404.512C228.362 411.029 234.736 419.014 239.391 428.467C243.974 437.92 246.266 448.018 246.266 458.76C246.266 468.213 244.439 477.236 240.787 485.83C237.063 494.424 232.122 501.836 225.963 508.066C219.732 514.225 212.32 519.167 203.727 522.891C195.133 526.543 186.109 528.369 176.656 528.369C167.203 528.369 158.18 526.543 149.586 522.891C140.992 519.167 133.616 514.225 127.457 508.066C121.227 501.836 116.285 494.424 112.633 485.83C108.909 477.236 107.047 468.213 107.047 458.76C107.047 447.946 109.374 437.813 114.029 428.359C118.684 418.835 125.094 410.814 133.258 404.297ZM123.59 392.266L128.209 398.496C119.257 405.729 112.203 414.609 107.047 425.137C101.891 435.592 99.3125 446.8 99.3125 458.76C99.3125 469.215 101.354 479.242 105.436 488.838C109.518 498.363 115.032 506.598 121.979 513.545C128.854 520.42 137.089 525.898 146.686 529.98C156.21 534.063 166.201 536.104 176.656 536.104C187.112 536.104 197.138 534.063 206.734 529.98C216.259 525.898 224.495 520.42 231.441 513.545C238.316 506.598 243.795 498.363 247.877 488.838C251.959 479.242 254 469.215 254 458.76C254 446.8 251.422 435.592 246.266 425.137C241.109 414.609 234.055 405.729 225.104 398.496L229.83 392.373C239.713 400.322 247.519 410.098 253.248 421.699C258.906 433.229 261.734 445.583 261.734 458.76C261.734 470.29 259.479 481.318 254.967 491.846C250.455 502.301 244.404 511.325 236.813 518.916C229.221 526.507 220.198 532.559 209.742 537.07C199.215 541.582 188.186 543.838 176.656 543.838C165.126 543.838 154.133 541.582 143.678 537.07C133.15 532.559 124.091 526.507 116.5 518.916C108.909 511.325 102.857 502.301 98.3457 491.846C93.834 481.318 91.5781 470.29 91.5781 458.76C91.5781 445.583 94.4427 433.193 100.172 421.592C105.829 409.99 113.635 400.215 123.59 392.266ZM99.3125 331.143L99.3125 323.408L254 323.408L254 331.143L99.3125 331.143ZM99.3125 346.611L99.3125 338.877L254 338.877L254 346.611L99.3125 346.611ZM99.3125 362.08L99.3125 354.346L254 354.346L254 362.08L99.3125 362.08ZM99.3125 377.549L99.3125 369.814L254 369.814L254 377.549L99.3125 377.549ZM142.174 275.82L142.174 268.086L254 268.086L254 275.82L142.174 275.82ZM107.047 306.758L99.3125 306.758L99.3125 190.742L107.047 190.742L107.047 306.758ZM122.516 306.758L114.781 306.758L114.781 190.742L122.516 190.742L122.516 306.758ZM137.984 306.758L130.25 306.758L130.25 190.742L137.984 190.742L137.984 306.758ZM142.174 229.414L142.174 221.68L254 221.68L254 229.414L142.174 229.414ZM142.174 244.883L142.174 237.148L254 237.148L254 244.883L142.174 244.883ZM142.174 260.352L142.174 252.617L254 252.617L254 260.352L142.174 260.352ZM99.3125 33.2617L99.3125 25.5273L201.793 74.1895L254 74.1895L254 81.9238L201.793 81.9238L99.3125 33.2617ZM99.3125 48.7305L99.3125 40.9961L201.793 89.6582L254 89.6582L254 97.3926L201.793 97.3926L99.3125 48.7305ZM99.3125 64.1992L99.3125 56.4648L201.793 105.127L254 105.127L254 112.861L201.793 112.861L99.3125 64.1992ZM99.3125 79.668L99.3125 71.9336L201.793 120.596L254 120.596L254 128.33L201.793 128.33L99.3125 180.215L99.3125 172.48L193.951 124.57L99.3125 79.668ZM99.3125 164.639L99.3125 156.904L172.252 118.555L180.738 122.422L99.3125 164.639ZM99.3125 149.17L99.3125 141.328L155.279 110.82L163.766 114.795L99.3125 149.17ZM99.3125 133.486L99.3125 125.752L138.414 103.086L146.9 106.953L99.3125 133.486Z" fill="white"/>
</svg>
