<svg width="208" height="253" viewBox="0 0 208 253" fill="none" xmlns="http://www.w3.org/2000/svg">
<path fill-rule="evenodd" clip-rule="evenodd" d="M65.4999 0.798726C64.1999 1.29873 62.3999 2.19873 61.4999 2.89873C59.5999 4.49873 56.1999 11.1987 53.3999 18.5987C49.7999 28.1987 41.3999 55.5988 41.3999 57.6987C41.3999 57.8988 49.6999 58.2987 59.8999 58.5987C107.9 60.0987 139.2 64.0987 160.8 71.5987C164.1 72.6987 166.8 73.4987 167 73.3987C167.1 73.1987 167 61.8988 166.7 48.1987C166.2 23.5987 166.2 23.2987 164.1 18.7987C161.8 13.8987 158.5 10.9987 153.3 9.29873C151.2 8.59873 142.3 8.09875 127.3 7.69875C105.2 7.09875 104.2 6.99874 94.7999 4.59874C76.8999 -0.00125599 70.2999 -0.901274 65.4999 0.798726ZM16.4999 60.3987C9.79991 61.7987 6.1999 63.5987 3.2999 66.8987C-0.000104427 70.5987 -0.500129 72.9987 1.39987 76.5987C4.59987 82.6987 15.1999 88.7987 33.8999 95.3987L43.8999 98.8987V105.099C43.8999 111.199 45.6999 117.799 47.1999 117.799C47.5999 117.799 47.8999 115.799 47.8999 113.399C47.8999 108.599 49.2999 100.899 50.1999 100.899C50.4999 100.899 56.9999 102.299 64.5999 104.099C91.7999 110.299 113.3 113.399 141.3 114.999C148.4 115.399 150.6 115.799 151 116.799C151.4 117.899 151.6 117.899 152.4 116.799C153.1 115.899 155.9 115.499 163.3 114.999C172.9 114.399 183 112.999 188.2 111.499C196.6 108.999 205.8 102.099 207 97.2987C208.3 92.1987 203.4 87.2988 192.5 82.6988C186 79.8988 171 75.2987 168.5 75.2987C167.5 75.2987 167.3 76.5987 167.7 84.0987C167.9 88.9987 167.9 93.0987 167.6 93.2987C167.3 93.4987 165 93.0987 162.6 92.4987C149.8 89.1987 75.7999 80.5988 44.8999 78.6988C40.2999 78.3988 36.3999 77.8988 36.0999 77.5987C35.8999 77.1987 36.5999 73.3987 37.7999 68.8987C38.8999 64.4987 39.8999 60.4987 39.8999 59.9987C39.8999 58.7987 22.6999 59.0987 16.4999 60.3987ZM90.6999 172.699C88.4999 173.199 85.1999 174.499 83.3999 175.399C77.0999 178.799 75.0999 181.199 80.3999 179.199C90.9999 175.099 102.5 174.599 113.8 177.599C118 178.699 121.6 179.499 121.8 179.299C122.6 178.499 115.7 174.699 110.8 173.099C104.9 171.399 96.8999 171.199 90.6999 172.699ZM50.8999 187.499C50.1999 189.799 51.5999 199.699 53.6999 206.499C56.8999 216.799 64.1999 232.799 72.4999 247.799C75.8999 253.899 76.1999 254.099 77.4999 250.999C78.0999 249.499 80.8999 242.699 83.6999 235.999C88.4999 224.399 89.1999 221.299 86.7999 221.299C84.6999 221.299 74.2999 215.699 69.8999 212.199C64.0999 207.599 58.2999 200.099 54.4999 191.999C51.9999 186.999 51.2999 186.099 50.8999 187.499ZM145.2 190.199C142.6 196.599 136.6 205.199 131.2 209.999C126.2 214.499 114.5 221.299 111.7 221.299C111.1 221.299 110.4 221.799 110.1 222.399C109.9 222.999 112.5 230.299 116 238.499C122.3 253.499 122.3 253.499 123.8 251.599C126.3 248.299 139.8 221.099 142.4 213.999C147 201.599 149.6 186.699 147.3 186.699C146.9 186.799 146 188.399 145.2 190.199Z" fill="white"/>
</svg>
