<?xml version="1.0" encoding="utf-8"?>
<!-- Generator: Adobe Illustrator 25.0.0, SVG Export Plug-In . SVG Version: 6.00 Build 0)  -->
<svg version="1.1" id="Layer_1" xmlns="http://www.w3.org/2000/svg" xmlns:xlink="http://www.w3.org/1999/xlink" x="0px" y="0px"
	 viewBox="0 0 1794 1179" style="enable-background:new 0 0 1794 1179;" xml:space="preserve">
<style type="text/css">
	.st0{display:none;}
	.st1{fill-rule:evenodd;clip-rule:evenodd;fill:#FFFFFF;}
	.st2{fill:#FF3737;}
	.st3{fill:none;stroke:#FFFFFF;stroke-width:2;stroke-linecap:round;}
	.st4{fill:#FFFFFF;}
</style>
<rect class="st0" width="1794" height="1179"/>
<g id="logo">
	<path class="st1" d="M858.2,341.8c-1.3,0.5-3.1,1.4-4,2.1c-1.9,1.6-5.3,8.3-8.1,15.7c-3.6,9.6-12,37-12,39.1
		c0,0.2,8.3,0.6,18.5,0.9c48,1.5,79.3,5.5,100.9,13c3.3,1.1,6,1.9,6.2,1.8c0.1-0.2,0-11.5-0.3-25.2c-0.5-24.6-0.5-24.9-2.6-29.4
		c-2.3-4.9-5.6-7.8-10.8-9.5c-2.1-0.7-11-1.2-26-1.6c-22.1-0.6-23.1-0.7-32.5-3.1C869.6,341,863,340.1,858.2,341.8z M809.2,401.4
		c-6.7,1.4-10.3,3.2-13.2,6.5c-3.3,3.7-3.8,6.1-1.9,9.7c3.2,6.1,13.8,12.2,32.5,18.8l10,3.5l0,6.2c0,6.1,1.8,12.7,3.3,12.7
		c0.4,0,0.7-2,0.7-4.4c0-4.8,1.4-12.5,2.3-12.5c0.3,0,6.8,1.4,14.4,3.2c27.2,6.2,48.7,9.3,76.7,10.9c7.1,0.4,9.3,0.8,9.7,1.8
		c0.4,1.1,0.6,1.1,1.4,0c0.7-0.9,3.5-1.3,10.9-1.8c9.6-0.6,19.7-2,24.9-3.5c8.4-2.5,17.6-9.4,18.8-14.2c1.3-5.1-3.6-10-14.5-14.6
		c-6.5-2.8-21.5-7.4-24-7.4c-1,0-1.2,1.3-0.8,8.8c0.2,4.9,0.2,9-0.1,9.2c-0.3,0.2-2.6-0.2-5-0.8c-12.8-3.3-86.8-11.9-117.7-13.8
		c-4.6-0.3-8.5-0.8-8.8-1.1c-0.2-0.4,0.5-4.2,1.7-8.7c1.1-4.4,2.1-8.4,2.1-8.9C832.6,399.8,815.4,400.1,809.2,401.4z M883.4,513.7
		c-2.2,0.5-5.5,1.8-7.3,2.7c-6.3,3.4-8.3,5.8-3,3.8c10.6-4.1,22.1-4.6,33.4-1.6c4.2,1.1,7.8,1.9,8,1.7c0.8-0.8-6.1-4.6-11-6.2
		C897.6,512.4,889.6,512.2,883.4,513.7z M843.6,528.5c-0.7,2.3,0.7,12.2,2.8,19c3.2,10.3,10.5,26.3,18.8,41.3c3.4,6.1,3.7,6.3,5,3.2
		c0.6-1.5,3.4-8.3,6.2-15c4.8-11.6,5.5-14.7,3.1-14.7c-2.1,0-12.5-5.6-16.9-9.1c-5.8-4.6-11.6-12.1-15.4-20.2
		C844.7,528,844,527.1,843.6,528.5z M937.9,531.2c-2.6,6.4-8.6,15-14,19.8c-5,4.5-16.7,11.3-19.5,11.3c-0.6,0-1.3,0.5-1.6,1.1
		c-0.2,0.6,2.4,7.9,5.9,16.1c6.3,15,6.3,15,7.8,13.1c2.5-3.3,16-30.5,18.6-37.6c4.6-12.4,7.2-27.3,4.9-27.3
		C939.6,527.8,938.7,529.4,937.9,531.2z"/>
	<path class="st2" d="M788.1,793.3l-1.3,0.9l-6.6,18.9l-1-0.5l1.6,1.3h-7.7l1.1-0.8l-0.4-4.6l-2.2,4.8l-1.6-0.7l1.6,1.3h-7l1.1-0.8
		c-0.7-9.9-1.1-16.1-1.4-18.5l2.3,1.2l-3.2-2.7h7.7l-0.9,0.7l0.1,7l1.9-6.6l2.9,1.5l-3.2-2.7h7.8l-0.9,0.7l0.1,7l1.9-6.5l2.8,1.5
		l-3.2-2.7H788.1z M796.1,793.3l-0.8,0.4l-0.5,3h-6l0.4-2.3l3,1.6l-3.3-2.7H796.1z M788.8,797.4h6l-2.6,15.8l-1.2-0.5l1.6,1.3h-7.3
		l0.8-0.5L788.8,797.4z M804.2,793.3l-0.7,0.5l1.7,6.5l1-5.9l3,1.6l-3.3-2.7h6.8l-0.7,0.4l-3.3,19.5l-1.1-0.5l1.6,1.3h-7l0.7-0.4
		l-1.7-6.9l-1.1,6.6l-1.2-0.6l1.6,1.3h-7.2l0.7-0.4l3.2-19.1l2.9,1.5l-3.3-2.7H804.2z M837.4,793.3l-0.7,0.4c1.3,0.4,2.1,1,2.6,1.8
		c0.4,0.7,0.6,1.7,0.4,2.8c-0.9,5.9-1.6,9.9-2,11.8c-0.3,1.5-1.6,2.7-3.7,3.4l-1.6-0.7l1.6,1.3H825l0.7-0.4
		c-2.5-0.7-3.6-1.9-3.3-3.6c0.1-0.4,0.4-2,0.9-5c0.5-2.9,0.9-5.2,1.2-6.8c0.2-1,0.6-1.9,1.1-2.5c0.5-0.7,1.3-1.2,2.4-1.6l3.7,2
		l-3.3-2.7H837.4z M827.1,797.9l3.3,0.8l-1.7,10.3h3.1l1.8-11L827.1,797.9z M841,793.2h12.6l-0.8,0.4c0.8,0.5,1.4,1.2,1.7,2.1
		c0.3,0.9,0.3,2.1,0.1,3.7c-0.2,0.8-0.3,1.5-0.4,2c-0.1,0.5-0.3,1-0.5,1.7c-0.2,0.7-0.6,1.3-1,1.9c-0.4,0.6-0.9,1-1.5,1.5l-2.6,0.6
		h2.5l4.4,10.1l0.9,0.5h-6.9l-0.1-0.5l-4.2-9.5l-0.9,5.4l-1.1-0.5l1.7,1.4l-7.4-0.1l0.8-0.5l3.1-19.1l2.9,1.5L841,793.2z M846.8,798
		l-0.9,5.1l2.9,0l0.8-4.5l1.3-0.5H846.8z M882.3,793.3l-0.9,0.6c0.3,0.1,0.5,0.2,0.7,0.3c0.2,0.1,0.4,0.2,0.5,0.3
		c0.1,0.1,0.3,0.2,0.4,0.4c0.1,0.1,0.2,0.3,0.3,0.4c0.1,0.1,0.1,0.2,0.2,0.4c0,0.2,0,0.3,0,0.4c0,0.1,0,0.3,0,0.5
		c0,0.2,0,0.4-0.1,0.5c0,0.1,0,0.3-0.1,0.6c0,0.3-0.1,0.5-0.1,0.6l-0.5,2.9c-0.1,0.5-0.4,1-0.8,1.5c-0.4,0.5-0.7,0.8-1.1,1l-0.5,0.3
		c0,0,0.1,0.1,0.2,0.1c0.1,0.1,0.3,0.2,0.5,0.4c0.2,0.2,0.4,0.4,0.6,0.6c0.2,0.2,0.3,0.5,0.4,0.8c0.1,0.3,0.2,0.7,0.1,1l-0.5,3
		c-0.2,0.9-0.5,1.6-0.9,2.1c-0.4,0.5-1.2,1-2.3,1.3l-1.5-0.7l1.6,1.3h-13.4l0.8-0.5l3.2-19.1l3,1.6l-3.3-2.7L882.3,793.3z
		 M874.8,798.1l-0.6,3.4h2.6l0.6-3.4H874.8z M870.8,804.7l2.8,0.7l-0.6,3.7h2.9l0.7-4.3L870.8,804.7z M898.2,793.3l-0.8,0.4l0.6,2
		l-1.4,2.9l-0.8-0.5l-5.4,0l-0.5,3h5.9l-0.8,0.4l0.7,2.1l-1.5,2.9l-0.6-0.6h-7l2.5,0.7l-0.4,2.4h5.5l0.9-0.6l0.6,2.4l-1.4,2.6
		l0.8,0.5h-13.6l2.3-1.7l-1.6,0.6l3.1-18.5l2.9,1.5l-3.3-2.7L898.2,793.3z M925.3,793.3l-0.8,0.5c0.9,0.3,1.6,0.7,2,1.1
		c0.4,0.4,0.6,0.9,0.6,1.5s-0.1,1.2-0.2,1.9c-0.1,0.6-0.3,1.9-0.6,3.7c-0.3,1.8-0.5,3.4-0.8,4.7c-0.2,1.3-0.4,2.4-0.6,3.3
		c-0.2,0.9-0.5,1.5-1,2.1c-0.5,0.5-1.3,1-2.4,1.4l-1.5-0.7l1.6,1.3H908l0.8-0.5l3.2-19.1l3,1.5l-3.3-2.7L925.3,793.3z M917.5,798.1
		l-1.8,10.6l-2.2,0.5l5.3-0.1l1.9-11H917.5z M941.6,793.3l-0.8,0.4l0.6,2l-1.4,2.9l-0.8-0.5l-5.4,0l-0.5,3h5.9l-0.8,0.4l0.7,2.1
		l-1.5,2.9l-0.6-0.6h-7l2.5,0.7l-0.4,2.4h5.5l0.9-0.6l0.6,2.4l-1.4,2.6l0.8,0.5h-13.6l2.3-1.7l-1.6,0.6l3.1-18.5l2.9,1.5l-3.3-2.7
		L941.6,793.3z M956,793.1l-0.8,0.4l0.7,2.1l-1.5,2.9l-0.6-0.7h-5.1l-0.5,3h6.3l-2.8,1.6l2.2-0.7l0.5,1.6l-1.5,3l-0.7-0.6l-4.8,0
		l-1.9,11.3l0.8,0.5h-7.5l2.3-1.8l-1.6,0.6l3.6-22.3l3,1.6l-3.3-2.7H956z M970.1,793.3l-0.8,0.4l0.6,2l-1.4,2.9l-0.8-0.5l-5.4,0
		l-0.5,3h5.9l-0.8,0.4l0.7,2.1l-1.5,2.9l-0.6-0.6h-7l2.5,0.7l-0.4,2.4h5.5l0.9-0.6l0.6,2.4l-1.4,2.6l0.8,0.5h-13.6l2.3-1.7l-1.6,0.6
		l3.1-18.5l2.9,1.5l-3.3-2.7L970.1,793.3z M973.7,793.2l11,0l-0.8,0.4l-0.4,23.1l-1-0.4l1.6,1.3h-7.3l0.9-0.5l0.1-6.3l2.9-0.7
		l-6.1,0.1l-1,3.1l0.7,0.5h-7.6l0.9-0.5l6.3-18.9l2.8,1.5L973.7,793.2z M978.1,799.3l-2.1,7.3l2,0L978.1,799.3z M1003,793.2
		l-0.8,0.4l-0.8,5l-0.7-0.6h-4.5l-3.3,18.8l-1.2-0.5l1.6,1.3h-7.3l0.8-0.5l3.1-18.4l3.3-0.8l-3.3,0.1h-4.4l-0.9,0.6l0.7-4.3l2.9,1.5
		l-3.3-2.7H1003z M1016.5,793.3l-0.8,0.4l0.6,2l-1.4,2.9l-0.8-0.5l-5.4,0l-0.5,3h5.9l-0.8,0.4l0.7,2.1l-1.5,2.9l-0.6-0.6h-7l2.5,0.7
		l-0.4,2.4h5.5l0.9-0.6l0.6,2.4l-1.4,2.6l0.8,0.5h-13.6l2.3-1.7l-1.6,0.6l3.1-18.5l3,1.5l-3.3-2.7L1016.5,793.3z M1030.9,793.3
		l-0.8,0.5c0.9,0.3,1.6,0.7,2,1.1c0.4,0.4,0.6,0.9,0.6,1.5s0,1.2-0.2,1.9c-0.1,0.6-0.3,1.9-0.6,3.7c-0.3,1.8-0.5,3.4-0.8,4.7
		c-0.2,1.3-0.4,2.4-0.6,3.3c-0.2,0.9-0.5,1.5-1,2.1c-0.5,0.5-1.3,1-2.4,1.4l-1.5-0.7l1.6,1.3h-13.7l0.8-0.5l3.2-19.1l3,1.5l-3.3-2.7
		L1030.9,793.3z M1023.1,798.1l-1.8,10.6l-2.2,0.5l5.3-0.1l1.9-11H1023.1z"/>
	<path class="st3" d="M1052.5,803h64.5"/>
	<path class="st3" d="M677,803h64.5"/>
	<path class="st4" d="M571.6,650.3l-5.2,3.7l-26.5,75.6l-4.2-2l6.5,5.4h-30.6l4.2-3.1c-2.6-39.6-4.4-64.2-5.4-73.9l9.2,4.9
		l-12.9-10.6h31l-3.8,2.7l1.2,28l7.7-28.8l-2.6-1.9H571.6z M625.6,650.1l-3.1,1.8l2.6,8.1l-5.8,11.5l-3.3-1.9l-21.6-0.1l-2.2,12.2
		h23.7l-3.1,1.8l2.7,8.4l-6.1,11.8l-2.6-2.6h-28.2l9.9,2.7l-1.5,9.7h22.1l3.6-2.6l2.3,9.7l-5.6,10.5l3.1,1.9h-54.5l9.2-6.9l-6.5,2.6
		l12.3-73.9l11.8,6.1l-13.1-10.8L625.6,650.1z M658.7,650.1l-2.9,1.9l6.7,26.1l4.1-23.4l12,6.3l-13.3-10.9h27.1l-2.9,1.8l-13.3,78
		l-4.5-2.2l6.5,5.4h-27.9l2.7-1.8l-6.8-27.8l-4.5,26.5l-4.9-2.3l6.5,5.4h-28.8l2.9-1.8l12.8-76.3l11.5,6l-13.3-10.9H658.7z
		 M746.8,650.1l-3.3,1.9c3.7,1.2,6.4,2.6,8.1,4.4c1.7,1.7,2.6,3.7,2.6,5.9s-0.2,4.8-0.6,7.7c-0.4,2.6-1.2,7.5-2.4,14.7
		c-1.1,7.2-2.1,13.5-3.1,18.9c-0.9,5.4-1.7,9.7-2.4,13.1c-0.8,3.4-2.1,6.2-4,8.3c-1.9,2-5,3.9-9.5,5.5l-5.9-2.8l6.5,5.4h-54.8
		l3.1-1.9l12.7-76.3l11.9,6.1l-13.1-10.8L746.8,650.1z M715.7,669.4l-7,42.2l-9,2.2l21.2-0.4l7.4-44H715.7z M812,650.1l-3.1,1.8
		l2.6,8.1l-5.8,11.5l-3.3-1.9l-21.6-0.1l-2.2,12.2h23.7l-3.1,1.8l2.7,8.4l-6.1,11.8l-2.6-2.6H765l9.9,2.7l-1.5,9.7h22.1l3.6-2.6
		l2.3,9.7l-5.6,10.5l3.1,1.9h-54.5l9.2-6.9l-6.5,2.6l12.3-73.9l11.8,6.1L758,650.2L812,650.1z M884.9,649.9l-3.2,1.8l-3.3,20.1
		l-2.7-2.6h-18.2l-13.1,75.1l-4.6-2l6.5,5.4h-29.1l3.2-1.9l12.4-73.7l13.3-3.2l-13.3,0.4h-17.4l-3.6,2.6l2.9-17.2l11.5,6l-13.2-10.8
		H884.9z M956.4,649.9l-3.2,1.8l-3.3,20.1l-2.7-2.6H929l-13.1,75.1l-4.6-2l6.5,5.4h-29.1l3.2-1.9l12.4-73.7l13.3-3.2l-13.3,0.4H887
		l-3.6,2.6l2.9-17.2l11.5,6l-13.2-10.8H956.4z M958.1,649.9l43.9,0.1l-3.1,1.8l-1.7,92.3l-4-1.8l6.5,5.4h-29.1l3.6-2l0.4-25.2
		l11.6-2.8l-24.3,0.5l-3.8,12.5l2.9,2h-30.2l3.6-2.2l25.3-75.8l11.4,5.9L958.1,649.9z M975.5,674.4l-8.3,29.1l7.9-0.1L975.5,674.4z
		 M1065.5,650.1l35.1,0.1l-2.7,1.5c5.1,1.6,8.5,4,10.2,7c1.8,3,2.3,6.7,1.7,11c-0.3,1.5-0.6,3.7-1.2,6.5c-0.4,2.8-0.8,4.9-1,6.3
		l-24.2,0.1l2.2-13.6H1066l7,1.9l-7.2,42.5h12.3l2.4-12.9h23.9c-1.6,9.2-2.6,14.6-3,16.3c-1.4,6.1-6.3,10.7-14.8,13.7l-6.4-2.9
		l6.5,5.4h-35.4l2.8-1.7c-9.9-2.9-14.2-7.7-13.1-14.5c0.3-1.5,1.5-8.1,3.5-19.8c2-11.7,3.5-20.8,4.7-27.3c0.8-4.1,2.2-7.5,4.3-10.1
		c2.2-2.6,5.6-4.9,10-6.7l15.1,7.9L1065.5,650.1z M1144.8,650.1l-3.1,1.8l-1.9,12.2h-23.9l1.5-9.3l11.9,6.3l-13.2-10.9H1144.8z
		 M1115.5,666.6h23.8l-10.5,63.2l-4.6-2.2l6.5,5.4h-29.1l3.2-1.9L1115.5,666.6z M1218.3,649.9l-3.2,1.8l-3.3,20.1l-2.7-2.6h-18.2
		l-13.1,75.1l-4.6-2l6.5,5.4h-29.1l3.2-1.9l12.4-73.7l13.3-3.2l-13.3,0.4h-17.4l-3.6,2.6l2.9-17.2l11.5,6l-13.2-10.8H1218.3z
		 M1220.4,650.1h30.8l-3.3,2.4l4.2,11.6l5.2,14.6l-1.8-13.7l7-13.2l-2-1.8h29.6l-3.7,1.8l-48.8,92.8l-5.4-2.6l6.8,5.6l-29.6,0.1
		l4-1.9l26.4-51.2l-14.6-38.3l8.2,4.2L1220.4,650.1z"/>
</g>
</svg>
